<?xml version="1.0" encoding="UTF-8" standalone="no"?>
<!-- Created with Inkscape (http://www.inkscape.org/) -->

<svg
   xmlns:dc="http://purl.org/dc/elements/1.1/"
   xmlns:cc="http://creativecommons.org/ns#"
   xmlns:rdf="http://www.w3.org/1999/02/22-rdf-syntax-ns#"
   xmlns:svg="http://www.w3.org/2000/svg"
   xmlns="http://www.w3.org/2000/svg"
   xmlns:sodipodi="http://sodipodi.sourceforge.net/DTD/sodipodi-0.dtd"
   xmlns:inkscape="http://www.inkscape.org/namespaces/inkscape"
   width="116.87854mm"
   height="113.07426mm"
   viewBox="0 0 116.87854 113.07426"
   version="1.1"
   id="svg8"
   inkscape:version="0.92.4 (5da689c313, 2019-01-14)"
   sodipodi:docname="git-collaboration.svg">
  <defs
     id="defs2" />
  <sodipodi:namedview
     id="base"
     pagecolor="#000000"
     bordercolor="#666666"
     borderopacity="1.0"
     inkscape:pageopacity="0.0"
     inkscape:pageshadow="2"
     inkscape:zoom="1.4"
     inkscape:cx="163.08656"
     inkscape:cy="235.82545"
     inkscape:document-units="mm"
     inkscape:current-layer="centralized_x5F_workflow_x5F_6"
     showgrid="false"
     inkscape:window-width="1920"
     inkscape:window-height="1017"
     inkscape:window-x="-8"
     inkscape:window-y="-8"
     inkscape:window-maximized="1" />
  <metadata
     id="metadata5">
    <rdf:RDF>
      <cc:Work
         rdf:about="">
        <dc:format>image/svg+xml</dc:format>
        <dc:type
           rdf:resource="http://purl.org/dc/dcmitype/StillImage" />
        <dc:title />
      </cc:Work>
    </rdf:RDF>
  </metadata>
  <g
     inkscape:label="Layer 1"
     inkscape:groupmode="layer"
     id="layer1"
     transform="translate(-89.34942,-113.61741)">
    <g
       id="centralized_x5F_workflow_x5F_6"
       transform="matrix(0.26458333,0,0,0.26458333,41.955369,121.74854)">
      <path
         id="path12"
         d="M 246.8,223 H 354 c 11.6,0 21,-9.4 21,-21 v -38.9"
         class="st14"
         inkscape:connector-curvature="0"
         style="fill:none;stroke:#ebebeb;stroke-width:2;stroke-miterlimit:10" />
      <path
         id="path14"
         d="M 400,163.1 V 280.8"
         class="st12"
         inkscape:connector-curvature="0"
         style="fill:#b18be8;stroke:#ebebeb;stroke-width:2;stroke-linecap:round;stroke-linejoin:round;stroke-miterlimit:10" />
      <path
         id="path16"
         d="M 553.2,223 H 446 c -11.6,0 -21,-9.4 -21,-21 v -38.9"
         class="st14"
         inkscape:connector-curvature="0"
         style="fill:none;stroke:#ebebeb;stroke-width:2;stroke-miterlimit:10" />
      <path
         id="path18"
         d="m 246.8,223 c -11.6,0 -21,9.4 -21,21 v 36.9 M 553.2,223 c 11.6,0 21,9.4 21,21 v 36.9 m -17,69.5 c 3.1,6.8 9.9,11.2 17.3,11.2 7.5,0 14.3,-4.4 17.4,-11.3"
         class="st11"
         inkscape:connector-curvature="0"
         style="fill:none;stroke:#ebebeb;stroke-width:2;stroke-linecap:round;stroke-linejoin:round;stroke-miterlimit:10" />
      <path
         id="path20"
         d="m 574.1,394.6 c 0,0 27.4,0.8 37.7,-5.2 17,-9.9 -0.3,-30.2 -13.7,-33.6 -4.1,7.7 -13.3,13 -24,13 h 0.3 c -10.7,0 -19.8,-5.4 -24,-13 -13.4,3.4 -30.7,23.8 -13.7,33.6 10.3,6 37.7,5.2 37.7,5.2"
         class="st15"
         inkscape:connector-curvature="0"
         style="fill:#4ed1a1;stroke:#ebebeb;stroke-width:2;stroke-miterlimit:10" />
      <circle
         id="circle22"
         r="23"
         cy="324.89999"
         cx="574.5"
         class="st15"
         style="fill:#4ed1a1;stroke:#ebebeb;stroke-width:2;stroke-miterlimit:10" />
      <path
         id="path24"
         d="m 558.9,308 c 2.6,20 34.1,7.2 38,21.8 -2.2,10.4 -11.4,18.2 -22.5,18.2 -12.7,0 -23,-10.3 -23,-23 0,-1.3 0.1,-2.6 0.3,-3.9 1.2,0 8.1,3.8 7.2,-13.1 z"
         class="st5"
         inkscape:connector-curvature="0"
         style="fill:#191919;stroke:#ebebeb;stroke-width:2;stroke-miterlimit:10" />
      <path
         id="path26"
         d="m 587,345.2 v 10.6 m -24.6,0 v -10.3"
         class="st11"
         inkscape:connector-curvature="0"
         style="fill:none;stroke:#ebebeb;stroke-width:2;stroke-linecap:round;stroke-linejoin:round;stroke-miterlimit:10" />
      <path
         d="m 337.3,116.2 c 0,-12.4 28.2,-22.4 63,-22.4 34.8,0 63,10 63,22.4 m -126,0 v 27.9 c 0,3 1.7,5.9 4.7,8.5 9.4,8.2 32,13.9 58.3,13.9 26.4,0 48.9,-5.8 58.3,-13.9 3,-2.6 4.7,-5.5 4.7,-8.5 v -27.9"
         class="st6"
         id="repo1_8_"
         inkscape:connector-curvature="0"
         style="fill:#424a60;stroke:#ebebeb;stroke-width:2;stroke-miterlimit:10;fill-opacity:1" />
      <path
         id="path29"
         d="m 463.3,116.2 c 0,12.4 -28.2,22.4 -63,22.4 -34.8,0 -63,-10 -63,-22.4 0,-12.4 28.2,-22.4 63,-22.4 34.8,0 63,10 63,22.4 z"
         class="st5"
         inkscape:connector-curvature="0"
         style="fill:#000000;stroke:#ebebeb;stroke-width:2;stroke-miterlimit:10" />
      <path
         d="m 337.3,88.3 c 0,-12.4 28.2,-22.4 63,-22.4 34.8,0 63,10 63,22.4 m -126,0 v 27.9 c 0,3 1.7,5.9 4.7,8.5 9.4,8.2 32,13.9 58.3,13.9 26.4,0 48.9,-5.8 58.3,-13.9 3,-2.6 4.7,-5.5 4.7,-8.5 V 88.3"
         class="st6"
         id="repo1_7_"
         inkscape:connector-curvature="0"
         style="fill:#556080;stroke:#ebebeb;stroke-width:2;stroke-miterlimit:10;fill-opacity:1" />
      <path
         id="path32"
         d="m 463.3,88.3 c 0,12.4 -28.2,22.4 -63,22.4 -34.8,0 -63,-10 -63,-22.4 0,-12.4 28.2,-22.4 63,-22.4 34.8,0 63,10 63,22.4 z"
         class="st5"
         inkscape:connector-curvature="0"
         style="fill:#000000;stroke:#ebebeb;stroke-width:2;stroke-miterlimit:10" />
      <path
         d="m 337.3,60.4 c 0,-12.4 28.2,-22.4 63,-22.4 34.8,0 63,10 63,22.4 m -126,0 v 27.9 c 0,3 1.7,5.9 4.7,8.5 9.4,8.2 32,13.9 58.3,13.9 26.4,0 48.9,-5.8 58.3,-13.9 3,-2.6 4.7,-5.5 4.7,-8.5 V 60.4"
         class="st6"
         id="repo1_6_"
         inkscape:connector-curvature="0"
         style="fill:#7383bf;stroke:#ebebeb;stroke-width:2;stroke-miterlimit:10;fill-opacity:1" />
      <path
         id="path35"
         d="m 463.3,60.4 c 0,12.4 -28.2,22.4 -63,22.4 -34.8,0 -63,-10 -63,-22.4 0,-12.4 28.2,-22.4 63,-22.4 34.8,0 63,10 63,22.4 z"
         class="st5"
         inkscape:connector-curvature="0"
         style="fill:#000000;stroke:#ebebeb;stroke-width:2;stroke-miterlimit:10" />
      <path
         d="m 337.3,32.5 c 0,-12.4 28.2,-22.4 63,-22.4 34.8,0 63,10 63,22.4 m -126,0 v 27.9 c 0,3 1.7,5.9 4.7,8.5 9.4,8.2 32,13.9 58.3,13.9 26.4,0 48.9,-5.8 58.3,-13.9 3,-2.6 4.7,-5.5 4.7,-8.5 V 32.5"
         class="st6"
         id="repo1_5_"
         inkscape:connector-curvature="0"
         style="fill:#7fabda;stroke:#ebebeb;stroke-width:2;stroke-miterlimit:10;fill-opacity:1" />
      <path
         id="path38"
         d="m 463.3,32.5 c 0,12.4 -28.2,22.4 -63,22.4 -34.8,0 -63,-10 -63,-22.4 0,-12.4 28.2,-22.4 63,-22.4 34.8,0 63,10 63,22.4 z"
         class="st5"
         inkscape:connector-curvature="0"
         style="fill:#7fabda;stroke:#ebebeb;stroke-width:2;stroke-miterlimit:10;fill-opacity:1" />
      <path
         id="path40"
         d="m 208.7,348.3 c 3.1,6.8 9.9,11.2 17.3,11.2 7.5,0 14.3,-4.4 17.4,-11.3"
         class="st11"
         inkscape:connector-curvature="0"
         style="fill:none;stroke:#ebebeb;stroke-width:2;stroke-linecap:round;stroke-linejoin:round;stroke-miterlimit:10" />
      <path
         id="path42"
         d="m 225.6,392.6 c 0,0 27.4,0.8 37.7,-5.2 17,-9.9 -0.3,-30.2 -13.7,-33.6 -4.1,7.7 -13.3,13 -24,13 h 0.3 c -10.7,0 -19.8,-5.4 -24,-13 -13.4,3.4 -30.7,23.8 -13.7,33.6 10.3,6 37.7,5.2 37.7,5.2"
         class="st27"
         inkscape:connector-curvature="0"
         style="fill:#4cd3d6;stroke:#ebebeb;stroke-width:2;stroke-linejoin:round;stroke-miterlimit:10" />
      <circle
         id="circle44"
         r="23"
         cy="322.89999"
         cx="226"
         class="st27"
         style="fill:#4cd3d6;stroke:#ebebeb;stroke-width:2;stroke-linejoin:round;stroke-miterlimit:10" />
      <path
         id="path46"
         d="m 236.7,310.7 c 2.6,20 7.9,2.4 11.8,17 -2.2,10.4 -11.4,18.2 -22.5,18.2 -12.7,0 -23,-10.3 -23,-23 0,-1.3 0.1,-2.6 0.3,-3.9 1.1,0 26.3,11 33.4,-8.3 z"
         class="st5"
         inkscape:connector-curvature="0"
         style="fill:#191919;stroke:#ebebeb;stroke-width:2;stroke-miterlimit:10" />
      <path
         id="path48"
         d="m 238.6,343.1 v 10.6 m -24.6,0.1 v -10.3"
         class="st11"
         inkscape:connector-curvature="0"
         style="fill:none;stroke:#ebebeb;stroke-width:2;stroke-linecap:round;stroke-linejoin:round;stroke-miterlimit:10" />
      <path
         id="path50"
         d="m 382.7,349.3 c 3.1,6.8 9.9,11.2 17.3,11.2 7.5,0 14.3,-4.4 17.4,-11.3"
         class="st4"
         inkscape:connector-curvature="0"
         style="fill:#000000;stroke:#ebebeb;stroke-width:2;stroke-linecap:round;stroke-linejoin:round;stroke-miterlimit:10" />
      <path
         id="path52"
         d="m 400.1,393.6 c 0,0 27.4,0.8 37.7,-5.2 17,-9.9 -0.3,-30.2 -13.7,-33.6 -4.1,7.7 -13.3,13 -24,13 h 0.3 c -10.7,0 -19.8,-5.4 -24,-13 -13.4,3.4 -30.7,23.8 -13.7,33.6 10.3,6 37.7,5.2 37.7,5.2"
         class="st7"
         inkscape:connector-curvature="0"
         style="fill:#b18be8;stroke:#ebebeb;stroke-width:2;stroke-miterlimit:10" />
      <circle
         id="circle54"
         r="23"
         cy="323.89999"
         cx="400"
         class="st7"
         style="fill:#b18be8;stroke:#ebebeb;stroke-width:2;stroke-miterlimit:10" />
      <path
         id="path56"
         d="m 410.1,303.2 c -6.7,17.2 -19.4,0.5 -32.6,25.5 2.2,10.4 11.4,18.2 22.5,18.2 12.7,0 23,-10.3 23,-23 0,-1.3 -11.1,-5.9 -12.9,-20.7 z m 2.5,40 v 11.6 m -24.6,0 v -11.3"
         class="st4"
         inkscape:connector-curvature="0"
         style="fill:#191919;stroke:#ebebeb;stroke-width:2;stroke-linecap:round;stroke-linejoin:round;stroke-miterlimit:10" />
      <path
         id="path58"
         d="m 377,324.4 c 0,0 0,10.6 4.6,14.5 -3.6,1.7 -11.6,-0.9 -10.5,-1.7 4.5,-3.2 5.9,-12.8 5.9,-12.8 z m 46,-0.5 c 0,0 -0.2,11.1 -4.8,15 3.6,1.7 11.6,-0.9 10.5,-1.7 -4.5,-3.2 -5.7,-13.3 -5.7,-13.3 z"
         class="st7"
         inkscape:connector-curvature="0"
         style="fill:#b18be8;stroke:#ebebeb;stroke-width:2;stroke-miterlimit:10" />
    </g>
    <text
       xml:space="preserve"
       style="font-style:normal;font-variant:normal;font-weight:normal;font-stretch:normal;font-size:10.14244175px;line-height:1.25;font-family:'Cascadia Code';-inkscape-font-specification:'Cascadia Code';letter-spacing:0px;word-spacing:0px;writing-mode:lr-tb;direction:ltr;fill:#ffffff;fill-opacity:1;stroke:none;stroke-width:0.25356102"
       x="126.76318"
       y="117.58616"
       id="text99"><tspan
         sodipodi:role="line"
         x="126.76318"
         y="117.58616"
         style="font-size:5.64444447px;line-height:0;writing-mode:lr-tb;direction:ltr;stroke-width:0.25356102"
         id="tspan101">Remote Server</tspan></text>
  </g>
  <style
     id="style10"
     type="text/css">.st0{display:none;} .st1{display:inline;} .st2{fill:#000000;} .st3{fill:none;stroke:#9882CE;stroke-width:2;stroke-miterlimit:10;} .st4{fill:#000000;stroke:#ebebeb;stroke-width:2;stroke-linecap:round;stroke-linejoin:round;stroke-miterlimit:10;} .st5{fill:#000000;stroke:#ebebeb;stroke-width:2;stroke-miterlimit:10;} .st6{fill:#B3E3FF;stroke:#ebebeb;stroke-width:2;stroke-miterlimit:10;} .st7{fill:#B18BE8;stroke:#ebebeb;stroke-width:2;stroke-miterlimit:10;} .st8{fill:#000000;stroke:#ebebeb;stroke-width:6;stroke-miterlimit:10;} .st9{fill:#B3E3FF;stroke:#ebebeb;stroke-width:6;stroke-miterlimit:10;} .st10{fill:#ebebeb;} .st11{fill:none;stroke:#ebebeb;stroke-width:2;stroke-linecap:round;stroke-linejoin:round;stroke-miterlimit:10;} .st12{fill:#B18BE8;stroke:#ebebeb;stroke-width:2;stroke-linecap:round;stroke-linejoin:round;stroke-miterlimit:10;} .st13{fill:#444444;} .st14{fill:none;stroke:#ebebeb;stroke-width:2;stroke-miterlimit:10;} .st15{fill:#4ED1A1;stroke:#ebebeb;stroke-width:2;stroke-miterlimit:10;} .st16{fill:none;stroke:#CCCCCC;stroke-width:7;stroke-linecap:round;stroke-linejoin:round;stroke-miterlimit:10;} .st17{fill:#000000;stroke:#CCCCCC;stroke-width:7;stroke-linecap:round;stroke-linejoin:round;stroke-miterlimit:10;} .st18{fill:none;stroke:#ebebeb;stroke-width:7;stroke-miterlimit:10;} .st19{fill:#B3E3FF;stroke:#ebebeb;stroke-width:7;stroke-miterlimit:10;} .st20{fill:none;stroke:#CCCCCC;stroke-width:8;stroke-linecap:round;stroke-miterlimit:10;} .st21{fill:none;stroke:#ebebeb;stroke-width:8;stroke-linecap:round;stroke-miterlimit:10;} .st22{fill:#000000;stroke:#ebebeb;stroke-width:2;stroke-linejoin:round;stroke-miterlimit:10;} .st23{fill:#B3E3FF;stroke:#ebebeb;stroke-width:2;stroke-linejoin:round;stroke-miterlimit:10;} .st24{fill:none;stroke:#CCCCCC;stroke-linecap:round;stroke-linejoin:round;stroke-miterlimit:10;} .st25{fill:#999999;} .st26{fill:#4ED1A1;stroke:#ebebeb;stroke-width:2;stroke-linecap:round;stroke-linejoin:round;stroke-miterlimit:10;} .st27{fill:#4CD3D6;stroke:#ebebeb;stroke-width:2;stroke-linejoin:round;stroke-miterlimit:10;} .st28{fill:none;stroke:#59AFE1;stroke-width:2;stroke-miterlimit:10;} .st29{fill:#59AFE1;stroke:#ebebeb;stroke-width:2;stroke-linejoin:round;stroke-miterlimit:10;} .st30{fill:none;stroke:#ebebeb;stroke-width:8;stroke-linecap:round;stroke-linejoin:round;stroke-miterlimit:10;stroke-dasharray:0,30;} .st31{fill:#000000;stroke:#59AFE1;stroke-width:2;stroke-miterlimit:10;} .st32{fill:#FC8363;stroke:#ebebeb;stroke-width:2;stroke-linecap:round;stroke-linejoin:round;stroke-miterlimit:10;} .st33{fill:#CCCCCC;stroke:#ebebeb;stroke-width:2;stroke-miterlimit:10;} .st34{fill:#000000;stroke:#6693ED;stroke-width:2;stroke-miterlimit:10;} .st35{fill:none;stroke:#A97CDD;stroke-width:2;stroke-linecap:round;stroke-linejoin:round;stroke-miterlimit:10;} .st36{fill:none;stroke:#B3E3FF;stroke-width:2;stroke-linecap:round;stroke-linejoin:round;stroke-miterlimit:10;} .st37{fill:none;stroke:#4ED1A1;stroke-width:2;stroke-linecap:round;stroke-miterlimit:10;} .st38{fill:none;stroke:#4ED1A1;stroke-width:2;stroke-linecap:round;stroke-linejoin:round;stroke-miterlimit:10;} .st39{fill:#E24B88;stroke:#ebebeb;stroke-width:2;stroke-linecap:round;stroke-linejoin:round;stroke-miterlimit:10;} .st40{fill:none;stroke:#DEEFF8;stroke-width:2;stroke-miterlimit:10;} .st41{fill:none;stroke:#CCCCCC;stroke-width:2;stroke-linecap:round;stroke-linejoin:round;} .st42{fill:none;stroke:#CCCCCC;stroke-width:2;stroke-linecap:round;stroke-linejoin:round;stroke-dasharray:0,14.3051;} .st43{fill:none;stroke:#CCCCCC;stroke-width:2;stroke-linecap:round;stroke-linejoin:round;stroke-dasharray:0,14.1689;} .st44{fill:none;stroke:#CCCCCC;stroke-width:2;stroke-linecap:round;stroke-linejoin:round;stroke-dasharray:0,13.9788;} .st45{fill:none;stroke:#CCCCCC;stroke-width:2;stroke-linecap:round;stroke-linejoin:round;stroke-dasharray:0,14.7877;} .st46{fill:none;stroke:#CCCCCC;stroke-width:2;stroke-linecap:round;stroke-linejoin:round;stroke-dasharray:0,14.9632;} .st47{fill:#B3E3FF;stroke:#ebebeb;stroke-width:2;stroke-linecap:round;stroke-linejoin:round;stroke-miterlimit:10;} .st48{fill:none;stroke:#CCCCCC;stroke-width:2;stroke-linecap:round;stroke-linejoin:round;stroke-dasharray:0,12.543;} .st49{fill:none;stroke:#CCCCCC;stroke-width:2;stroke-linecap:round;stroke-linejoin:round;stroke-dasharray:0,13.6844;} .st50{fill:none;stroke:#CCCCCC;stroke-width:2;stroke-linecap:round;stroke-linejoin:round;stroke-dasharray:0,13.7717;} .st51{fill:none;stroke:#CCCCCC;stroke-width:2;stroke-linecap:round;stroke-linejoin:round;stroke-dasharray:0,13.6492;} .st52{fill:none;stroke:#CCCCCC;stroke-width:2;stroke-linecap:round;stroke-linejoin:round;stroke-dasharray:0,13.907;} .st53{fill:#4CD3D6;stroke:#ebebeb;stroke-width:2;stroke-linecap:round;stroke-linejoin:round;stroke-miterlimit:10;} .st54{fill:none;stroke:#CCCCCC;stroke-width:2;stroke-linecap:round;stroke-linejoin:round;stroke-dasharray:0,14.9858;} .st55{fill:none;stroke:#CCCCCC;stroke-width:2;stroke-linecap:round;stroke-linejoin:round;stroke-dasharray:0,14.0118;} .st56{fill:none;stroke:#CCCCCC;stroke-width:2;stroke-linecap:round;stroke-linejoin:round;stroke-dasharray:0,14.1243;} .st57{fill:none;} .st58{fill:#000000;stroke:#ebebeb;stroke-width:7;stroke-linecap:round;stroke-linejoin:round;stroke-miterlimit:10;} .st59{fill:#59AFE1;stroke:#ebebeb;stroke-width:7;stroke-linejoin:round;stroke-miterlimit:10;} .st60{fill:#E24B88;stroke:#ebebeb;stroke-width:7;stroke-linecap:round;stroke-linejoin:round;stroke-miterlimit:10;} .st61{fill:none;stroke:#ebebeb;stroke-width:7;stroke-linecap:round;stroke-linejoin:round;stroke-miterlimit:10;} .st62{fill:none;stroke:#CCCCCC;stroke-width:2;stroke-linecap:round;stroke-linejoin:round;stroke-miterlimit:10;} .st63{fill:#000000;stroke:#CCCCCC;stroke-width:2;stroke-linecap:round;stroke-linejoin:round;stroke-miterlimit:10;} .st64{fill:#F5F5F5;} .st65{fill:#3873AE;} .st66{fill:#75706C;} .st67{fill:none;stroke:#B3E3FF;stroke-width:2;stroke-miterlimit:10;} .st68{fill:#6F6F6F;} .st69{fill:none;stroke:#6F6F6F;stroke-width:2;stroke-miterlimit:10;} .st70{fill:none;stroke:#6F6F6F;stroke-width:3;stroke-miterlimit:10;}</style>
</svg>
