<?xml version="1.0" encoding="UTF-8" standalone="no"?>
<!-- Created with Inkscape (http://www.inkscape.org/) -->

<svg
   xmlns:dc="http://purl.org/dc/elements/1.1/"
   xmlns:cc="http://creativecommons.org/ns#"
   xmlns:rdf="http://www.w3.org/1999/02/22-rdf-syntax-ns#"
   xmlns:svg="http://www.w3.org/2000/svg"
   xmlns="http://www.w3.org/2000/svg"
   xmlns:sodipodi="http://sodipodi.sourceforge.net/DTD/sodipodi-0.dtd"
   xmlns:inkscape="http://www.inkscape.org/namespaces/inkscape"
   width="83.110199mm"
   height="59.518726mm"
   viewBox="0 0 83.110198 59.518727"
   version="1.1"
   id="svg8"
   inkscape:version="0.92.4 (5da689c313, 2019-01-14)"
   sodipodi:docname="git-staging.svg"
   style="enable-background:new"
   inkscape:export-filename="C:\Users\l\Work\Git-Presentation-G6\reveal.js\img\git-staging.png"
   inkscape:export-xdpi="549.5"
   inkscape:export-ydpi="549.5">
  <defs
     id="defs2" />
  <sodipodi:namedview
     id="base"
     pagecolor="#000000"
     bordercolor="#666666"
     borderopacity="1.0"
     inkscape:pageopacity="0"
     inkscape:pageshadow="2"
     inkscape:zoom="1.979899"
     inkscape:cx="150.78603"
     inkscape:cy="109.54408"
     inkscape:document-units="mm"
     inkscape:current-layer="layer1"
     showgrid="false"
     inkscape:object-paths="true"
     inkscape:snap-intersection-paths="true"
     inkscape:snap-bbox="true"
     inkscape:window-width="1920"
     inkscape:window-height="1017"
     inkscape:window-x="-8"
     inkscape:window-y="-8"
     inkscape:window-maximized="1"
     inkscape:pagecheckerboard="false" />
  <metadata
     id="metadata5">
    <rdf:RDF>
      <cc:Work
         rdf:about="">
        <dc:format>image/svg+xml</dc:format>
        <dc:type
           rdf:resource="http://purl.org/dc/dcmitype/StillImage" />
        <dc:title></dc:title>
      </cc:Work>
    </rdf:RDF>
  </metadata>
  <g
     inkscape:label="Layer 1"
     inkscape:groupmode="layer"
     id="layer1"
     transform="translate(-189.90608,-105.94401)">
    <text
       xml:space="preserve"
       style="font-style:normal;font-variant:normal;font-weight:normal;font-stretch:normal;font-size:7.05555534px;line-height:1.25;font-family:'Cascadia Code';-inkscape-font-specification:'Cascadia Code';letter-spacing:0px;word-spacing:0px;fill:#000000;fill-opacity:1;stroke:none;stroke-width:0.26458332"
       x="122.74353"
       y="155.01308"
       id="text31"
       inkscape:export-xdpi="695.10046"
       inkscape:export-ydpi="695.10046"><tspan
         sodipodi:role="line"
         id="tspan29"
         x="122.74353"
         y="161.29694"
         style="font-size:7.05555534px;stroke-width:0.26458332" /></text>
    <path
       style="fill:#ffffff;fill-opacity:1;stroke:none;stroke-width:0.01576253"
       id="path1661-0"
       d="m 192.4489,133.49387 c 0,2.56929 0.0157,2.75845 0.36254,3.24708 0.64626,0.96151 1.19795,1.16643 3.45199,1.22948 l 2.0176,0.0631 v 0.61474 c 0,0.34677 0.0788,0.61474 0.17339,0.61474 0.28373,0 4.08249,-2.26981 4.03521,-2.42743 -0.0473,-0.14186 -3.87758,-2.44319 -4.0825,-2.45895 -0.0788,0 -0.1261,0.31524 -0.1261,0.70931 v 0.70931 h -1.70235 c -1.11914,0 -1.7654,-0.0631 -1.8915,-0.18915 -0.1261,-0.1261 -0.18915,-0.91423 -0.18915,-2.522 v -2.33286 h -1.02457 -1.02456 z"
       inkscape:connector-curvature="0"
       inkscape:export-xdpi="695.10046"
       inkscape:export-ydpi="695.10046" />
    <text
       xml:space="preserve"
       style="font-style:normal;font-variant:normal;font-weight:normal;font-stretch:normal;font-size:10.58333302px;line-height:1.25;font-family:'Cascadia Code';-inkscape-font-specification:'Cascadia Code';letter-spacing:0px;word-spacing:0px;fill:#000000;fill-opacity:1;stroke:none;stroke-width:0.26458332"
       x="208.59134"
       y="113.58546"
       id="text1863"
       inkscape:export-xdpi="695.10046"
       inkscape:export-ydpi="695.10046"><tspan
         sodipodi:role="line"
         id="tspan1861"
         x="208.59134"
         y="113.58546"
         style="font-style:normal;font-variant:normal;font-weight:normal;font-stretch:normal;font-size:4.23333311px;font-family:'Cascadia Code';-inkscape-font-specification:'Cascadia Code';fill:#ffffff;fill-opacity:1;stroke-width:0.26458332">working directory</tspan></text>
    <path
       style="fill:#ffffff;fill-opacity:1;stroke:none;stroke-width:0.01557687"
       id="path1663-1"
       d="m 259.96253,134.6823 v 1.0125 h 2.30538 c 1.58884,0 2.36768,0.0623 2.4923,0.18692 0.12461,0.12462 0.18692,0.76327 0.18692,1.86923 v 1.68231 h -0.71653 c -0.51404,0 -0.70096,0.0623 -0.63865,0.18691 0.2025,0.49847 2.27422,3.94095 2.38325,3.9721 0.14019,0.0468 2.39884,-3.72286 2.39884,-4.00325 0,-0.0779 -0.2648,-0.15576 -0.6075,-0.15576 h -0.6075 l -0.0623,-1.99384 c -0.0623,-2.2275 -0.26481,-2.77269 -1.215,-3.41134 -0.48288,-0.34269 -0.6698,-0.35827 -3.20884,-0.35827 h -2.71037 z"
       inkscape:connector-curvature="0" />
    <path
       style="fill:#ffffff;fill-opacity:1;stroke:none;stroke-width:0.01573572"
       id="path1683-2"
       d="m 264.84723,155.95789 c 0,1.60504 -0.0629,2.39183 -0.18883,2.51772 -0.12588,0.12588 -0.77105,0.18883 -1.88829,0.18883 h -1.69945 v -0.72384 c 0,-0.51928 -0.0629,-0.70811 -0.18883,-0.64517 -0.50355,0.20457 -3.98114,2.29742 -4.01261,2.40757 -0.0471,0.14161 3.76084,2.42329 4.04408,2.42329 0.0786,0 0.15736,-0.2675 0.15736,-0.61369 v -0.61369 l 2.01417,-0.0629 c 2.2502,-0.063 2.80096,-0.26752 3.44612,-1.22739 0.34619,-0.48781 0.36193,-0.67664 0.36193,-3.24156 v -2.73802 h -1.02283 -1.02282 z"
       inkscape:connector-curvature="0" />
    <text
       xml:space="preserve"
       style="font-style:normal;font-variant:normal;font-weight:normal;font-stretch:normal;font-size:4.58611107px;line-height:1.25;font-family:inconsolata;-inkscape-font-specification:inconsolata;letter-spacing:0px;word-spacing:0px;fill:#000000;fill-opacity:1;stroke:none;stroke-width:0.26458332"
       x="217.26263"
       y="159.84177"
       id="text2583"><tspan
         sodipodi:role="line"
         id="tspan2581"
         x="217.26263"
         y="159.84177"
         style="font-style:normal;font-variant:normal;font-weight:normal;font-stretch:normal;font-size:4.23333311px;font-family:'Cascadia Code';-inkscape-font-specification:'Cascadia Code';fill:#ffffff;fill-opacity:1;stroke-width:0.26458332">repository</tspan></text>
    <path
       style="fill:#ffffff;fill-opacity:1;stroke:none;stroke-width:0.01557687;enable-background:new"
       id="path1663-1-3"
       d="m 199.34966,111.71554 v 1.0125 h -2.30538 c -1.58884,0 -2.36768,0.0623 -2.4923,0.18692 -0.12461,0.12462 -0.18692,0.76327 -0.18692,1.86923 v 1.68231 h 0.71653 c 0.51404,0 0.70096,0.0623 0.63865,0.18691 -0.2025,0.49847 -2.27422,3.94095 -2.38325,3.9721 -0.14019,0.0468 -2.39884,-3.72286 -2.39884,-4.00325 0,-0.0779 0.2648,-0.15576 0.6075,-0.15576 h 0.6075 l 0.0623,-1.99384 c 0.0623,-2.2275 0.26481,-2.77269 1.215,-3.41134 0.48288,-0.34269 0.6698,-0.35827 3.20884,-0.35827 h 2.71037 z"
       inkscape:connector-curvature="0"
       inkscape:export-xdpi="695.10046"
       inkscape:export-ydpi="695.10046" />
    <path
       d="m 204.0518,151.94039 c -0.0503,0.0567 -0.0851,0.12408 -0.0765,0.14991 0.008,0.0258 -0.0259,0.0468 -0.0761,0.0468 -0.0811,0 -0.0919,0.7609 -0.0919,6.48485 v 6.48511 l 0.17861,0.17784 0.17856,0.17784 25.47009,-8.4e-4 c 26.55381,-0.002 25.68385,0.006 25.68385,-0.23317 0,-0.0381 0.0413,-0.0693 0.0919,-0.0693 0.13917,0 0.13917,-12.94624 0,-12.99946 -0.0505,-0.0193 -0.0919,-0.0614 -0.0919,-0.0937 0,-0.2424 1.09091,-0.23266 -25.67484,-0.23003 -23.87252,0.002 -25.50608,0.009 -25.5918,0.10513"
       id="path3-4-5-7"
       inkscape:connector-curvature="0"
       style="fill:#1de9b6;fill-opacity:1;fill-rule:evenodd;stroke:none;stroke-width:0.26402712;enable-background:new"
       sodipodi:nodetypes="csssccccsscscc" />
    <text
       xml:space="preserve"
       style="font-style:normal;font-variant:normal;font-weight:normal;font-stretch:normal;font-size:4.60122538px;line-height:1.25;font-family:inconsolata;-inkscape-font-specification:inconsolata;letter-spacing:0px;word-spacing:0px;fill:#000000;fill-opacity:1;stroke:none;stroke-width:0.26545528;enable-background:new"
       x="217.22815"
       y="159.73164"
       id="text2583-4"><tspan
         sodipodi:role="line"
         id="tspan2581-4"
         x="217.22815"
         y="159.73164"
         style="font-style:normal;font-variant:normal;font-weight:normal;font-stretch:normal;font-size:4.24728441px;font-family:'Cascadia Code';-inkscape-font-specification:'Cascadia Code';fill:#ffffff;fill-opacity:1;stroke-width:0.26545528">repository</tspan></text>
    <path
       d="m 204.05177,128.63427 c -0.0503,0.0567 -0.0851,0.12408 -0.0765,0.14991 0.008,0.0258 -0.0259,0.0468 -0.0761,0.0468 -0.0811,0 -0.0919,0.7609 -0.0919,6.48485 v 6.48511 l 0.17861,0.17784 0.17856,0.17784 25.47009,-8.4e-4 c 26.5538,-0.002 25.68384,0.006 25.68384,-0.23317 0,-0.0381 0.0413,-0.0693 0.0919,-0.0693 0.13918,0 0.13918,-12.94624 0,-12.99946 -0.0505,-0.0193 -0.0919,-0.0614 -0.0919,-0.0937 0,-0.2424 1.09092,-0.23266 -25.67483,-0.23003 -23.87253,0.002 -25.50608,0.009 -25.59181,0.10513"
       id="path3-4-5-7-2"
       inkscape:connector-curvature="0"
       style="fill:#ff822e;fill-opacity:1;fill-rule:evenodd;stroke:none;stroke-width:0.26402712;enable-background:new"
       sodipodi:nodetypes="csssccccsscscc"
       inkscape:export-xdpi="695.10046"
       inkscape:export-ydpi="695.10046" />
    <path
       d="m 204.24476,106.04898 c -0.0503,0.0567 -0.0851,0.12408 -0.0765,0.14991 0.008,0.0258 -0.0259,0.0468 -0.0761,0.0468 -0.0811,0 -0.0919,0.7609 -0.0919,6.48485 v 6.48511 l 0.17861,0.17784 0.17856,0.17784 25.47009,-8.4e-4 c 26.55381,-0.002 25.68385,0.006 25.68385,-0.23317 0,-0.0381 0.0413,-0.0693 0.0919,-0.0693 0.13918,0 0.13918,-12.94624 0,-12.99946 -0.0505,-0.0193 -0.0919,-0.0614 -0.0919,-0.0937 0,-0.2424 1.09092,-0.23266 -25.67484,-0.23003 -23.87252,0.002 -25.50608,0.009 -25.5918,0.10513"
       id="path3-4-5-7-8"
       inkscape:connector-curvature="0"
       style="fill:#f21a1d;fill-opacity:1;fill-rule:evenodd;stroke:none;stroke-width:0.26402712;enable-background:new"
       sodipodi:nodetypes="csssccccsscscc"
       inkscape:export-xdpi="695.10046"
       inkscape:export-ydpi="695.10046" />
    <text
       xml:space="preserve"
       style="font-style:normal;font-variant:normal;font-weight:normal;font-stretch:normal;font-size:10.58333302px;line-height:1.25;font-family:'Cascadia Code';-inkscape-font-specification:'Cascadia Code';letter-spacing:0px;word-spacing:0px;fill:#000000;fill-opacity:1;stroke:none;stroke-width:0.26458332;enable-background:new"
       x="208.79065"
       y="113.83668"
       id="text1863-7"
       inkscape:export-xdpi="695.10046"
       inkscape:export-ydpi="695.10046"><tspan
         sodipodi:role="line"
         id="tspan1861-3"
         x="208.79065"
         y="113.83668"
         style="font-style:normal;font-variant:normal;font-weight:normal;font-stretch:normal;font-size:4.23333311px;font-family:'Cascadia Code';-inkscape-font-specification:'Cascadia Code';fill:#ffffff;fill-opacity:1;stroke-width:0.26458332">working directory</tspan></text>
    <text
       xml:space="preserve"
       style="font-style:normal;font-variant:normal;font-weight:normal;font-stretch:normal;font-size:10.58333302px;line-height:1.25;font-family:Inconsolata;-inkscape-font-specification:Inconsolata;letter-spacing:0px;word-spacing:0px;fill:#000000;fill-opacity:1;stroke:none;stroke-width:0.26458332;enable-background:new"
       x="215.16035"
       y="136.388"
       id="text1875-7"
       inkscape:export-xdpi="695.10046"
       inkscape:export-ydpi="695.10046"><tspan
         sodipodi:role="line"
         id="tspan1873-0"
         x="215.16035"
         y="136.388"
         style="font-style:normal;font-variant:normal;font-weight:normal;font-stretch:normal;font-size:4.09222221px;font-family:'Cascadia Code';-inkscape-font-specification:'Cascadia Code';fill:#e9ffff;fill-opacity:1;stroke-width:0.26458332">staging area</tspan></text>
    <text
       xml:space="preserve"
       style="font-style:normal;font-variant:normal;font-weight:normal;font-stretch:normal;font-size:5.15055561px;line-height:1.25;font-family:'Cascadia Code';-inkscape-font-specification:'Cascadia Code';letter-spacing:0px;word-spacing:0px;fill:#000000;fill-opacity:1;stroke:none;stroke-width:0.26458332"
       x="189.70764"
       y="126.73727"
       id="text873"
       inkscape:export-xdpi="695.10046"
       inkscape:export-ydpi="695.10046"><tspan
         sodipodi:role="line"
         id="tspan871"
         x="189.70764"
         y="126.73727"
         style="font-size:4.23333311px;fill:#ffffff;fill-opacity:1;stroke-width:0.26458332">add</tspan></text>
    <text
       xml:space="preserve"
       style="font-style:normal;font-variant:normal;font-weight:normal;font-stretch:normal;font-size:5.15055561px;line-height:1.25;font-family:'Cascadia Code';-inkscape-font-specification:'Cascadia Code';letter-spacing:0px;word-spacing:0px;fill:#000000;fill-opacity:1;stroke:none;stroke-width:0.26458332;enable-background:new"
       x="258.42285"
       y="149.50452"
       id="text873-1"><tspan
         sodipodi:role="line"
         id="tspan871-2"
         x="258.42285"
         y="149.50452"
         style="font-size:4.23333311px;fill:#ffffff;fill-opacity:1;stroke-width:0.26458332">commit</tspan></text>
  </g>
</svg>
