<?xml version="1.0" encoding="UTF-8" standalone="no"?>
<svg
   xmlns:dc="http://purl.org/dc/elements/1.1/"
   xmlns:cc="http://creativecommons.org/ns#"
   xmlns:rdf="http://www.w3.org/1999/02/22-rdf-syntax-ns#"
   xmlns:svg="http://www.w3.org/2000/svg"
   xmlns="http://www.w3.org/2000/svg"
   xmlns:sodipodi="http://sodipodi.sourceforge.net/DTD/sodipodi-0.dtd"
   xmlns:inkscape="http://www.inkscape.org/namespaces/inkscape"
   class="octicon octicon-git-merge"
   viewBox="0 0 12 14.010016"
   version="1.1"
   aria-hidden="true"
   id="svg4"
   sodipodi:docname="merging.svg"
   inkscape:version="0.92.4 (5da689c313, 2019-01-14)"
   width="12"
   height="14.010015"
   inkscape:export-filename="C:\Users\l\Work\Git-Presentation-G6\reveal.js\img\merging.png"
   inkscape:export-xdpi="12799.986"
   inkscape:export-ydpi="12799.986">
  <metadata
     id="metadata10">
    <rdf:RDF>
      <cc:Work
         rdf:about="">
        <dc:format>image/svg+xml</dc:format>
        <dc:type
           rdf:resource="http://purl.org/dc/dcmitype/StillImage" />
        <dc:title></dc:title>
      </cc:Work>
    </rdf:RDF>
  </metadata>
  <defs
     id="defs8" />
  <sodipodi:namedview
     pagecolor="#ffffff"
     bordercolor="#666666"
     borderopacity="1"
     objecttolerance="10"
     gridtolerance="10"
     guidetolerance="10"
     inkscape:pageopacity="0"
     inkscape:pageshadow="2"
     inkscape:window-width="1920"
     inkscape:window-height="1017"
     id="namedview6"
     showgrid="false"
     inkscape:zoom="41.7193"
     inkscape:cx="3.5913897"
     inkscape:cy="6.2259714"
     inkscape:window-x="-8"
     inkscape:window-y="-8"
     inkscape:window-maximized="1"
     inkscape:current-layer="svg4" />
  <path
     d="m 10,6.0100087 c -0.73,0 -1.38,0.41 -1.73,1.02 v -0.02 c -1.05,-0.02 -2.27,-0.36 -3.13,-1.02 -0.75,-0.58 -1.5,-1.61 -1.89,-2.44 A 1.993,1.993 0 0 0 2,8.7472504e-6 C 0.89,8.7472504e-6 0,0.90000875 0,2.0100087 a 2,2 0 0 0 1,1.72 v 6.5600003 c -0.59,0.35 -1,0.99 -1,1.72 0,1.11 0.89,2 2,2 a 1.993,1.993 0 0 0 1,-3.72 V 6.6800087 c 0.67,0.7 1.44,1.27 2.3,1.69 0.86,0.42 2.03,0.63 2.97,0.64 v -0.02 c 0.36,0.61 1,1.0200003 1.73,1.0200003 1.11,0 2,-0.8900003 2,-2.0000003 0,-1.11 -0.89,-2 -2,-2 z M 3.2,12.010009 c 0,0.66 -0.55,1.2 -1.2,1.2 -0.65,0 -1.2,-0.55 -1.2,-1.2 0,-0.65 0.55,-1.2 1.2,-1.2 0.65,0 1.2,0.55 1.2,1.2 z M 2,3.2100087 c -0.66,0 -1.2,-0.55 -1.2,-1.2 0,-0.65 0.55,-1.19999995 1.2,-1.19999995 0.65,0 1.2,0.54999995 1.2,1.19999995 0,0.65 -0.55,1.2 -1.2,1.2 z m 8,6 c -0.66,0 -1.2,-0.55 -1.2,-1.2 0,-0.65 0.55,-1.2 1.2,-1.2 0.65,0 1.2,0.55 1.2,1.2 0,0.65 -0.55,1.2 -1.2,1.2 z"
     id="path2"
     inkscape:connector-curvature="0"
     style="fill-rule:evenodd" />
</svg>
